<?xml version="1.0" encoding="UTF-8"?>
<svg id="Calque_1" data-name="Calque 1" xmlns="http://www.w3.org/2000/svg" viewBox="0 0 425.1969 372.6383">
  <defs>
    <style>
      .cls-1 {
        stroke: #e41d20;
      }

      .cls-1, .cls-2, .cls-3 {
        fill: none;
        stroke-linecap: round;
        stroke-linejoin: round;
        stroke-width: 12px;
      }

      .cls-2 {
        stroke: #203c83;
      }

      .cls-3 {
        stroke: #8e8889;
      }

      .cls-4 {
        fill: #1d1d1b;
        stroke-width: 0px;
      }
    </style>
  </defs>
  <path class="cls-3" d="m307.2648,224.8273h30.8337c34.3719,0,62.2358-27.8639,62.2358-62.2356s-27.8639-62.2358-62.2358-62.2358c-6.1614,0-12.1079.9089-17.7281,2.5767-13.1217-27.9947-41.5493-47.3862-74.5107-47.3862-29.9207,0-56.1072,15.9782-70.4996,39.8657-8.2591-3.7413-17.4292-5.8251-27.0863-5.8251-26.3332,0-49.0444,15.4921-59.5275,37.8573-4.49-1.3324-9.2407-2.0585-14.1631-2.0585-27.46,0-49.7208,22.2608-49.7208,49.7208s22.2608,49.7208,49.7208,49.7208h40.8314"/>
  <line class="cls-2" x1="24.8625" y1="288" x2="179.3178" y2="288"/>
  <line class="cls-1" x1="245.2509" y1="288" x2="399.7062" y2="288"/>
  <g>
    <path class="cls-4" d="m145.8488,322.6445h8.25c6.6592,0,11.1592,4.8301,11.1592,10.5s-4.5,10.499-11.1592,10.499h-8.25v-20.999Zm4.2598,3.8691v13.2598h4.0498c3.9004,0,6.7197-2.9102,6.7197-6.6289,0-3.75-2.8193-6.6309-6.7197-6.6309h-4.0498Z"/>
    <path class="cls-4" d="m167.6584,339.6543c0-2.3105,1.7695-4.0801,5.04-4.6211l4.5596-.7793v-.3906c0-1.5898-1.2002-2.6094-2.9102-2.6094-1.4697,0-2.6992.6309-3.3896,1.8008l-2.8203-2.1309c1.3506-1.8594,3.6006-3,6.3301-3,4.3799,0,6.6299,2.6104,6.6299,5.9395v9.7803h-3.8398v-1.4102c-.96,1.2002-2.7295,2.0107-4.5,2.0107-3.0293,0-5.0996-1.7402-5.0996-4.5898Zm5.8799,1.5293c1.71,0,2.9395-.9004,3.7197-2.1299v-2.0693l-3.5703.6289c-1.6191.2705-2.249.9307-2.249,1.8906s.8096,1.6797,2.0996,1.6797Z"/>
    <path class="cls-4" d="m186.4084,332.0039h-2.8203v-3.4805h2.8203v-3.7793h3.8398v3.7793h4.6191v3.4805h-4.6191v6.1191c0,1.6807.8994,2.3408,2.3994,2.3408,1.0498,0,1.7402-.1201,2.25-.3301v3.3291c-.75.3301-1.6504.4805-2.9102.4805-3.7793,0-5.5791-2.1299-5.5791-5.8203v-6.1191Z"/>
    <path class="cls-4" d="m197.508,339.6543c0-2.3105,1.7695-4.0801,5.04-4.6211l4.5596-.7793v-.3906c0-1.5898-1.2002-2.6094-2.9102-2.6094-1.4697,0-2.6992.6309-3.3896,1.8008l-2.8203-2.1309c1.3506-1.8594,3.6006-3,6.3301-3,4.3799,0,6.6299,2.6104,6.6299,5.9395v9.7803h-3.8398v-1.4102c-.96,1.2002-2.7295,2.0107-4.5,2.0107-3.0293,0-5.0996-1.7402-5.0996-4.5898Zm5.8799,1.5293c1.71,0,2.9395-.9004,3.7197-2.1299v-2.0693l-3.5703.6289c-1.6191.2705-2.249.9307-2.249,1.8906s.8096,1.6797,2.0996,1.6797Z"/>
    <path class="cls-4" d="m221.717,334.1338v3.6904h-8.0996v-3.6904h8.0996Z"/>
    <path class="cls-4" d="m225.4074,322.6445h12.2393v3.6299h-7.9795v4.8604h6.7803v3.6289h-6.7803v5.25h7.9795v3.6299h-12.2393v-20.999Zm4.1396-1.8008l3.3896-4.0488h4.3799l-3.8994,4.0488h-3.8701Z"/>
    <path class="cls-4" d="m242.9885,332.0039h-2.8203v-3.4805h2.8203v-3.7793h3.8398v3.7793h4.6191v3.4805h-4.6191v6.1191c0,1.6807.8994,2.3408,2.3994,2.3408,1.0498,0,1.7402-.1201,2.25-.3301v3.3291c-.75.3301-1.6504.4805-2.9102.4805-3.7793,0-5.5791-2.1299-5.5791-5.8203v-6.1191Z"/>
    <path class="cls-4" d="m254.0881,339.6543c0-2.3105,1.7695-4.0801,5.04-4.6211l4.5596-.7793v-.3906c0-1.5898-1.2002-2.6094-2.9102-2.6094-1.4697,0-2.6992.6309-3.3896,1.8008l-2.8203-2.1309c1.3506-1.8594,3.6006-3,6.3301-3,4.3799,0,6.6299,2.6104,6.6299,5.9395v9.7803h-3.8398v-1.4102c-.96,1.2002-2.7295,2.0107-4.5,2.0107-3.0293,0-5.0996-1.7402-5.0996-4.5898Zm5.8799,1.5293c1.71,0,2.9395-.9004,3.7197-2.1299v-2.0693l-3.5703.6289c-1.6191.2705-2.249.9307-2.249,1.8906s.8096,1.6797,2.0996,1.6797Z"/>
    <path class="cls-4" d="m272.8381,332.0039h-2.8203v-3.4805h2.8203v-3.7793h3.8398v3.7793h4.6191v3.4805h-4.6191v6.1191c0,1.6807.8994,2.3408,2.3994,2.3408,1.0498,0,1.7402-.1201,2.25-.3301v3.3291c-.75.3301-1.6504.4805-2.9102.4805-3.7793,0-5.5791-2.1299-5.5791-5.8203v-6.1191Z"/>
  </g>
</svg>